# xmcd CD database file
#
# Track frame offsets:
#	187
#	20735
#	25332
#	46805
#	67417
#
# Disc length: 1184 seconds
#
# Revision: 0
# Processed by: cddbd v1.5.1PL0 Copyright (c) Steve Scherf et al.
# Submitted via: CDex 1.51
#
DISCID=43049e05
DTITLE=酒井　法子 - イヴの卵
DYEAR=1990
DGENRE=JPop
TTITLE0=イヴの卵
TTITLE1=20才へのInterlude〜「男の子になりたい」より〜
TTITLE2=ウインター・ガーデン
TTITLE3=イヴの卵（カラオケ）
TTITLE4=ウインター・ガーデン（カラオケ）
EXTD=YEAR: 1990
EXTT0=
EXTT1=
EXTT2=
EXTT3=
EXTT4=
PLAYORDER=
